<svg width="500" height="77" version="1.1" viewBox="0 0 500 77" xmlns="http://www.w3.org/2000/svg"><defs><clipPath id="e"><path transform="translate(-91.743 -772.23)" d="m0 0h595.28v841.89h-595.28z"/></clipPath><clipPath id="d"><path transform="translate(-76.283 -760.82)" d="m0 0h595.28v841.89h-595.28z"/></clipPath><clipPath id="c"><path transform="translate(-55.642 -784.77)" d="m0 0h595.28v841.89h-595.28z"/></clipPath><clipPath id="b"><path transform="translate(-55.958 -762.38)" d="m0 0h595.28v841.89h-595.28z"/></clipPath><clipPath id="a"><path transform="translate(-68.258 -762.38)" d="m0 0h595.28v841.89h-595.28z"/></clipPath></defs><g transform="matrix(2.2359 0 0 2.2359 -158.87 -165.16)"><path transform="matrix(1.3333 0 0 -1.3333 122.32 92.874)" d="m-2.8693 12.595c-0.451 0-0.81738-0.36492-0.81738-0.81592v-20.846c0-0.426 0.34597-0.77197 0.77197-0.77197h14.325v3.3647h-11.41v6.4746h10.32v3.2358h-10.32v5.9941h11.249v3.3647h-12.403zm45.294-0.01904c-0.424 0-0.76904-0.34504-0.76904-0.76904v-21.647h3.5273v1.686c0.436-0.5 0.95685-0.91844 1.5688-1.2524 0.919-0.502 1.9671-0.75293 3.1421-0.75293 1.389 0 2.6441 0.35162 3.7661 1.0576 1.122 0.705 2.0067 1.6612 2.6587 2.8682s0.97852 2.5597 0.97852 4.0547c0 1.517-0.32652 2.8789-0.97852 4.0869-0.652 1.206-1.5367 2.1668-2.6587 2.8828s-2.3771 1.0752-3.7661 1.0752c-1.154 0-2.1909-0.25193-3.1099-0.75293-0.623-0.341-1.1551-0.7702-1.6011-1.2832v8.7466zm50.996-0.62109c-0.432 0-0.78369-0.35169-0.78369-0.78369v-5.6265h-2.8975c-0.435 0-0.78662-0.35409-0.78662-0.78809v-2.417h3.6841v-12.179h3.5259v12.179h3.687v3.2051h-3.687v6.4102zm-25.482-6.0894c-1.752 0-3.0608-0.60501-3.9258-1.812-0.029-0.04-0.05357-0.082047-0.08057-0.12305v1.6143h-2.7861c-0.409 0-0.73975-0.33175-0.73975-0.73975v-14.646h3.5259v8.5591c0 1.324 0.31994 2.295 0.96094 2.915s1.453 0.93018 2.436 0.93018c0.449 0 0.84452-0.064359 1.1865-0.19336 0.341-0.128 0.65071-0.34114 0.92871-0.64014l2.3086 2.3716c-0.535 0.619-1.1114 1.0682-1.7314 1.3462s-1.314 0.41748-2.083 0.41748zm57.516 0c-1.752 0-3.0608-0.60501-3.9258-1.812-0.029-0.04-0.0536-0.082047-0.0806-0.12305v1.6143h-2.748c-0.429 0-0.77783-0.34883-0.77783-0.77783v-14.607h3.5259v8.5591c0 1.324 0.31993 2.295 0.96093 2.915s1.453 0.93018 2.436 0.93018c0.449 0 0.84452-0.064359 1.1865-0.19336 0.341-0.128 0.65071-0.34114 0.92871-0.64014l2.3071 2.3716c-0.535 0.619-1.11 1.0682-1.73 1.3462s-1.314 0.41748-2.083 0.41748zm-102.95-0.0014648c-1.09 0-2.0727-0.2397-2.9487-0.7207-0.568-0.312-1.0586-0.70288-1.4736-1.1719v1.5718h-2.7524c-0.426 0-0.77344-0.34497-0.77344-0.77197v-14.61h3.5259v9.1655c0 0.684 0.14824 1.2666 0.44824 1.7476 0.299 0.48 0.69964 0.84849 1.2026 1.1045 0.501 0.257 1.0729 0.38525 1.7139 0.38525 0.94 0 1.7306-0.28461 2.3716-0.84961 0.641-0.567 0.96094-1.3627 0.96094-2.3877v-9.1655h3.5273v9.1655c0 0.684 0.14778 1.2666 0.44678 1.7476 0.299 0.48 0.70675 0.84849 1.2188 1.1045 0.513 0.257 1.0792 0.38525 1.6992 0.38525 0.94 0 1.7306-0.28461 2.3716-0.84961 0.641-0.567 0.96094-1.3627 0.96094-2.3877v-9.1655h3.5259v9.9346c0 1.196-0.26727 2.2226-0.80127 3.0776-0.534 0.854-1.2505 1.5163-2.1475 1.9863s-1.9022 0.70459-3.0132 0.70459c-1.089 0-2.0876-0.2397-2.9956-0.7207-0.852-0.451-1.5552-1.0682-2.1152-1.8472-0.505 0.794-1.1709 1.4163-2.0039 1.8633-0.876 0.47-1.8597 0.70459-2.9487 0.70459zm56.66 0c-1.389 0-2.6441-0.35773-3.7661-1.0737s-2.0092-1.6773-2.6602-2.8843c-0.652-1.208-0.97852-2.5699-0.97852-4.0869 0-1.495 0.32652-2.8462 0.97852-4.0532 0.651-1.207 1.5382-2.1632 2.6602-2.8682s2.3771-1.0576 3.7661-1.0576c1.175 0 2.2216 0.25093 3.1406 0.75293 0.611 0.334 1.1333 0.75391 1.5703 1.2539v-1.686h3.5259v15.382h-2.8433c-0.377 0-0.68262-0.30462-0.68262-0.68262v-1.0298c-0.444 0.512-0.97143 0.93927-1.5864 1.2803-0.909 0.501-1.9495 0.75293-3.1245 0.75293zm22.982-0.3208c-0.423 0-0.76465-0.34165-0.76465-0.76465v-8.1753c0-1.325 0.28214-2.4962 0.84814-3.5112s1.3566-1.8102 2.3716-2.3862c1.014-0.577 2.1735-0.86572 3.4775-0.86572 1.325 0 2.4896 0.28361 3.4936 0.84961 1.004 0.565 1.7895 1.3566 2.3555 2.3716s0.84961 2.196 0.84961 3.542v8.9399h-2.7319c-0.438 0-0.79394-0.35302-0.79394-0.79102v-7.9893c0-1.133-0.27239-2.0028-0.81739-2.6118s-1.3295-0.91406-2.3555-0.91406c-0.662 0-1.2343 0.13802-1.7153 0.41602-0.48 0.278-0.84338 0.67864-1.0884 1.2026-0.246 0.523-0.36914 1.1592-0.36914 1.9072v8.7803zm-52.831-3.0117c0.855 0 1.6083-0.19826 2.2603-0.59326 0.651-0.396 1.1626-0.94588 1.5366-1.6509s0.56104-1.517 0.56104-2.436c0-0.918-0.18704-1.7296-0.56104-2.4346s-0.88562-1.2559-1.5366-1.6509c-0.652-0.396-1.4053-0.59326-2.2603-0.59326s-1.6129 0.19726-2.2749 0.59326c-0.663 0.395-1.1766 0.94588-1.5396 1.6509s-0.54346 1.5166-0.54346 2.4346c0 0.919 0.18046 1.731 0.54346 2.436s0.87655 1.2549 1.5396 1.6509c0.662 0.395 1.4199 0.59326 2.2749 0.59326zm30.425 0c0.877 0 1.6405-0.19826 2.2925-0.59326 0.652-0.396 1.159-0.94488 1.522-1.6509 0.364-0.705 0.54492-1.5166 0.54492-2.4346 0-1.368-0.40017-2.4902-1.2012-3.3662-0.802-0.876-1.8542-1.314-3.1582-1.314-0.854 0-1.6068 0.19826-2.2588 0.59326s-1.1651 0.94588-1.5381 1.6509c-0.374 0.705-0.56104 1.517-0.56104 2.436 0 0.918 0.18704 1.7296 0.56104 2.4346 0.373 0.706 0.88609 1.2549 1.5381 1.6509 0.652 0.395 1.4048 0.59326 2.2588 0.59326z" clip-path="url(#e)" fill="#3f3d3b"/><path transform="matrix(1.3333 0 0 -1.3333 101.71 108.09)" d="m0 0h-20.471c-1.386 0-2.52 1.134-2.52 2.521v20.47c0 1.387 1.134 2.521 2.52 2.521h20.471c1.386 0 2.521-1.134 2.521-2.521v-20.47c0-1.387-1.135-2.521-2.521-2.521" clip-path="url(#d)" fill="#fff"/><path transform="matrix(1.3333 0 0 -1.3333 74.19 76.158)" d="m0 0c-0.435 0-0.791-0.356-0.791-0.791v-20.515l21.303 21.306z" clip-path="url(#c)" fill="#00866c"/><path transform="matrix(1.3333 0 0 -1.3333 74.61 106.02)" d="m0 0h10.896c0 3e-3 -1e-3 7e-3 -1e-3 0.01 0 5.73 4.645 10.375 10.375 10.375 5e-3 0 0.01-1e-3 0.016-1e-3v10.903l-5.74-5.722z" clip-path="url(#b)" fill="#ffd700"/><path transform="matrix(1.3333 0 0 -1.3333 91.011 106.02)" d="m0 0h8.194c0.435 0 0.791 0.356 0.791 0.791v8.162c-5e-3 0-0.01 1e-3 -0.016 1e-3 -4.948 0-8.96-4.008-8.969-8.954" clip-path="url(#a)" fill="#005ba8"/></g></svg>
