<svg width="113" height="28" viewBox="0 0 113 28" fill="none" xmlns="http://www.w3.org/2000/svg">
<g clip-path="url(#clip0_141_99)">
<path d="M5.12075 26.3279H3.8147e-06V0.545345H16.5039V5.30915H5.08373V11.673H15.2514V16.291H5.12075V26.3277V26.3279Z" fill="#04193A"/>
<path d="M36.433 6.69094L31.8651 8.07294C31.6683 7.10351 31.2022 6.25471 30.4651 5.52716C29.7286 4.79962 28.6108 4.43647 27.1127 4.43647C25.9091 4.43647 24.9271 4.75815 24.1659 5.39983C23.4043 6.04256 23.024 6.8122 23.024 7.70917C23.024 9.26101 23.9691 10.2307 25.8604 10.6181L29.5077 11.309C31.8157 11.7452 33.609 12.661 34.886 14.0546C36.1625 15.4487 36.8014 17.0669 36.8014 18.909C36.8014 21.0429 35.9477 22.9036 34.2409 24.4911C32.534 26.0796 30.244 26.8729 27.3706 26.8729C25.7251 26.8729 24.2393 26.6304 22.9134 26.146C21.587 25.6609 20.519 25.0125 19.7084 24.2004C18.8979 23.3882 18.2653 22.5273 17.811 21.6182C17.3563 20.7091 17.0802 19.77 16.9821 18.7999L21.6974 17.5637C21.7955 18.9218 22.3363 20.0674 23.3183 21.0004C24.3004 21.9338 25.6634 22.4006 27.4076 22.4006C28.7576 22.4006 29.802 22.1095 30.5389 21.5275C31.2754 20.9455 31.6438 20.1821 31.6438 19.2364C31.6438 18.4856 31.3673 17.8368 30.8148 17.2912C30.2624 16.7453 29.4822 16.376 28.4759 16.1817L24.8285 15.4548C22.7163 15.0185 21.0465 14.1637 19.8187 12.8908C18.5904 11.6179 17.9767 10.0122 17.9767 8.07273C17.9767 5.81763 18.873 3.90872 20.6656 2.34515C22.4588 0.781786 24.5957 0 27.0763 0C29.925 0 32.1046 0.672675 33.615 2.01803C35.1255 3.36338 36.0649 4.9215 36.433 6.69094Z" fill="#04193A"/>
<path d="M39.2694 0.545345H48.6629C51.1437 0.545345 53.0894 1.19415 54.5022 2.49091C55.9139 3.78809 56.62 5.4547 56.62 7.49116C56.62 8.80007 56.2701 9.95819 55.57 10.9639C54.8705 11.9704 53.9552 12.6548 52.8256 13.0185C54.1275 13.3096 55.2204 14.0185 56.1044 15.1457C56.9884 16.273 57.4304 17.6006 57.4304 19.1277C57.4304 21.237 56.6939 22.9646 55.2204 24.3099C53.7464 25.6553 51.794 26.3279 49.3626 26.3279H39.269V0.545345H39.2694ZM44.2797 11.2001H47.8896C49.0685 11.2001 49.9834 10.9155 50.6339 10.3458C51.2847 9.7762 51.6103 8.98206 51.6103 7.96404C51.6103 6.94602 51.2907 6.15795 50.6523 5.59983C50.0135 5.04276 49.0802 4.76381 47.853 4.76381H44.2797V11.2001ZM44.2797 22.1459H48.4056C49.6581 22.1459 50.6279 21.8492 51.3154 21.255C52.003 20.6609 52.3468 19.8427 52.3468 18.8001C52.3468 17.7576 52.0092 16.922 51.3338 16.291C50.658 15.6609 49.7067 15.3459 48.479 15.3459H44.2797V22.1459Z" fill="#04193A"/>
<path d="M81.2166 26.3434H63.6597C63.6106 26.3434 63.5708 26.3833 63.5708 26.4325V27.911C63.5708 27.9602 63.6106 28 63.6597 28H81.2166C81.2657 28 81.3055 27.9602 81.3055 27.911V26.4325C81.3055 26.3833 81.2657 26.3434 81.2166 26.3434Z" fill="#04193A"/>
<path d="M65.0687 7.14644V11.6608H63.571V0.111622H65.0687V4.88129C65.5785 4.13699 66.3539 3.76463 67.3949 3.76463C68.2764 3.76463 68.9537 4.04652 69.4264 4.61009C69.8989 5.17386 70.1355 5.90224 70.1355 6.79544V11.6608H68.6378V7.05073C68.6378 5.76402 68.0427 5.12046 66.8534 5.12046C66.3009 5.12046 65.8707 5.30936 65.5628 5.68674C65.2547 6.06434 65.09 6.55083 65.0689 7.14644H65.0687Z" fill="#04193A"/>
<path d="M72.6765 4.90517C73.4147 4.13427 74.352 3.74872 75.4886 3.74872C76.6253 3.74872 77.5624 4.13427 78.3007 4.90517C79.0389 5.67627 79.4081 6.64675 79.4081 7.81639C79.4081 8.98604 79.0416 9.97264 78.3087 10.7435C77.5757 11.5146 76.6357 11.9002 75.4886 11.9002C74.3415 11.9002 73.4015 11.5148 72.6686 10.7435C71.9356 9.97264 71.5692 8.99672 71.5692 7.81639C71.5692 6.63607 71.9381 5.67627 72.6765 4.90517ZM73.7918 9.83442C74.2539 10.3184 74.8195 10.5601 75.4886 10.5601C76.1578 10.5601 76.7234 10.3184 77.1854 9.83442C77.6475 9.35065 77.8786 8.67776 77.8786 7.81639C77.8786 6.95503 77.6475 6.29848 77.1854 5.81449C76.7234 5.33072 76.1578 5.08862 75.4886 5.08862C74.8195 5.08862 74.2539 5.33072 73.7918 5.81449C73.3298 6.29848 73.0988 6.96571 73.0988 7.81639C73.0988 8.66708 73.3298 9.35065 73.7918 9.83442Z" fill="#04193A"/>
<path d="M82.4988 11.661H81.0011V0.111622H82.4988V11.661Z" fill="#04193A"/>
<path d="M90.0987 10.624V10.4964C89.8968 10.8899 89.5912 11.217 89.1825 11.4776C88.7736 11.7381 88.2875 11.8684 87.7246 11.8684C86.6304 11.8684 85.7515 11.483 85.0878 10.7119C84.4238 9.94102 84.0919 8.97054 84.0919 7.80068C84.0919 6.63083 84.4316 5.73491 85.1116 4.95333C85.7912 4.17176 86.6624 3.78076 87.7246 3.78076C88.3513 3.78076 88.861 3.906 89.254 4.15563C89.6469 4.40569 89.9178 4.71145 90.0667 5.07292V0.111622H91.5485V10.2411C91.5485 10.7622 91.5748 11.2357 91.6282 11.6608H90.1782C90.1248 11.3632 90.0985 11.0175 90.0985 10.624H90.0987ZM85.6216 7.80048C85.6216 8.60886 85.8207 9.26813 86.219 9.7785C86.6172 10.2889 87.1669 10.5442 87.8679 10.5442C88.5688 10.5442 89.0733 10.2836 89.477 9.76258C89.8805 9.24174 90.0824 8.57682 90.0824 7.76864C90.0824 6.96047 89.8858 6.32779 89.4929 5.83837C89.0999 5.34936 88.5634 5.10454 87.8838 5.10454C87.2042 5.10454 86.657 5.35459 86.2426 5.85428C85.8284 6.35418 85.6211 7.00277 85.6211 7.80048H85.6216Z" fill="#04193A"/>
<path d="M93.7552 1.84232C93.5481 1.63499 93.4446 1.38242 93.4446 1.08462C93.4446 0.786812 93.5481 0.531732 93.7552 0.318955C93.9623 0.106388 94.2146 0 94.512 0C94.8094 0 95.0642 0.103666 95.2767 0.310997C95.489 0.518328 95.5953 0.776341 95.5953 1.08462C95.5953 1.39289 95.489 1.63499 95.2767 1.84232C95.064 2.04965 94.8092 2.15331 94.512 2.15331C94.2148 2.15331 93.9623 2.04965 93.7552 1.84232ZM95.2608 11.6608H93.7791V3.98809H95.2608V11.661V11.6608Z" fill="#04193A"/>
<path d="M98.9889 7.22623V11.6608H97.4913V3.98809H98.9571V5.08883C99.4671 4.20631 100.253 3.76484 101.315 3.76484C102.197 3.76484 102.874 4.04673 103.347 4.61029C103.819 5.17407 104.056 5.90245 104.056 6.79565V11.661H102.558V7.05094C102.558 5.76423 101.963 5.12066 100.774 5.12066C100.21 5.12066 99.7723 5.32004 99.4592 5.71878C99.1456 6.11753 98.9891 6.61994 98.9891 7.22623H98.9889Z" fill="#04193A"/>
<path d="M105.569 12.0757L107.019 11.7406C107.072 12.283 107.29 12.7322 107.672 13.0885C108.055 13.4447 108.533 13.6229 109.106 13.6229C110.668 13.6229 111.448 12.7934 111.448 11.1343V10.0336C111.257 10.4059 110.957 10.709 110.548 10.9429C110.139 11.1768 109.658 11.2939 109.106 11.2939C108.086 11.2939 107.245 10.9456 106.581 10.2491C105.917 9.55274 105.585 8.66185 105.585 7.57702C105.585 6.4922 105.914 5.63879 106.573 4.92109C107.231 4.20317 108.076 3.84422 109.106 3.84422C110.274 3.84422 111.06 4.24862 111.464 5.05658V3.98789H112.946V11.0866C112.946 11.5972 112.879 12.0728 112.747 12.5142C112.614 12.9555 112.404 13.3622 112.117 13.7346C111.831 14.1067 111.43 14.3991 110.914 14.6118C110.399 14.8244 109.796 14.9308 109.106 14.9308C108.161 14.9308 107.359 14.6621 106.7 14.1251C106.042 13.588 105.665 12.9048 105.569 12.0753V12.0757ZM109.329 10.0338C109.977 10.0338 110.503 9.80803 110.907 9.35588C111.31 8.90394 111.512 8.31106 111.512 7.57723C111.512 6.8434 111.31 6.25073 110.907 5.79858C110.503 5.34664 109.977 5.12067 109.329 5.12067C108.681 5.12067 108.137 5.34392 107.728 5.79062C107.319 6.23733 107.115 6.83293 107.115 7.57723C107.115 8.32153 107.314 8.93054 107.712 9.3718C108.11 9.81327 108.649 10.0338 109.329 10.0338Z" fill="#04193A"/>
</g>
<defs>
<clipPath id="clip0_141_99">
<rect width="112.946" height="28" fill="white"/>
</clipPath>
</defs>
</svg>